<?xml version="1.0" encoding="utf-8"?>
<!-- Generator: Adobe Illustrator 15.0.2, SVG Export Plug-In . SVG Version: 6.00 Build 0)  -->
<!DOCTYPE svg PUBLIC "-//W3C//DTD SVG 1.1//EN" "http://www.w3.org/Graphics/SVG/1.1/DTD/svg11.dtd">
<svg version="1.1" id="Layer_1" xmlns="http://www.w3.org/2000/svg" xmlns:xlink="http://www.w3.org/1999/xlink" x="0px" y="0px"
	 width="512px" height="569.751px" viewBox="0 0 512 569.751" enable-background="new 0 0 512 569.751" xml:space="preserve">
<path d="M180.716,386.532H191.5l14.795-1.793l2.757-2.266c2.732-2.654,4.701-6.059,5.907-10.191l1.806-14.88v-29.178
	c0-11.391,1.309-21.411,3.938-30.051c2.624-8.651,6.72-15.85,12.293-21.593c5.562-5.743,12.645-10.081,21.272-13.014l8.869-3.774
	c8.64-2.927,19.036-4.393,31.19-4.393h14.067v31.057h-8.809v3.768h-10.3l-12.99,1.745l-3.271,2.63
	c-3.054,2.871-5.404,6.677-7.027,11.378c-1.648,4.701-2.46,10.542-2.46,17.521v29.009l-2.097,21.277
	c-1.405,5.865-3.562,10.772-6.471,14.687c-2.92,3.926-6.615,6.955-11.123,9.111l-6.435,2.496l-2.369,1.261l-3.229,1.394
	c10.1,1.878,17.751,6.41,22.962,13.619c5.84,8.083,8.761,20.503,8.761,37.261v43.144c0,7.318,0.812,13.426,2.46,18.297
	c1.623,4.871,3.974,8.772,7.027,11.729c3.054,2.956,6.688,5.041,10.894,6.276l14.177,1.866h10.3v31.044h-8.809v3.781h-14.08
	c-23.071,0-40.303-5.623-51.674-16.867c-11.379-11.221-17.067-29.058-17.067-53.462V456.4c0-11.608-2.623-20.357-7.876-26.234
	c-5.247-5.876-13.978-8.809-26.204-8.809H171.9v-31.068h8.815V386.532z M398.341,255.4c23.144,0,40.398,5.507,51.765,16.527
	c11.354,11.015,17.037,28.524,17.037,52.54v27.882c0,11.391,2.593,19.933,7.779,25.628c5.198,5.707,13.91,8.555,26.124,8.555H512
	v31.057h-8.821v3.769h-10.941L477.6,423.15l-2.836,2.399c-2.678,2.714-4.616,6.18-5.828,10.421l-1.793,15.158v44.537
	c0,11.656-1.321,21.859-3.95,30.608c-2.618,8.748-6.714,16.043-12.263,21.907c-5.55,5.865-12.675,10.3-21.678,13.402l-8.482,3.659
	c-8.688,3.005-19.097,4.508-31.25,4.508h-14.008v-31.069h8.797v-3.756h10.47l12.796-1.696l3.32-2.763
	c3.053-3.005,5.38-6.932,7.016-11.729c1.636-4.823,2.46-10.784,2.46-17.909v-44.161l2.096-21.812
	c1.406-6.059,3.526-11.087,6.386-15.098c2.86-3.999,6.544-7.089,11.027-9.245l6.47-2.509l2.352-1.248l3.247-1.405
	c-10.13-1.902-17.788-6.386-22.926-13.438c-5.768-7.912-8.651-20.065-8.651-36.448V327.74c0-7.186-0.824-13.184-2.46-18.007
	c-1.636-4.822-3.963-8.663-7.016-11.535c-3.029-2.884-6.641-4.92-10.833-6.155l-14.104-1.818h-10.445v-31.068h8.797V255.4H398.341z
	 M0,0h284.875l147.346,147.345v88.407h-39.309v-39.29h-157.16V39.296H39.29v432.202h142.438l9.821,39.314H0V0z M275.036,49.117
	v108.055h108.062L275.036,49.117z M293.842,471.498h103.99l-14.734,39.314h-82.034L293.842,471.498z"/>
</svg>
